<?xml version="1.0" standalone="no"?>
<!DOCTYPE svg PUBLIC "-//W3C//DTD SVG 1.1//EN" "http://www.w3.org/Graphics/SVG/1.1/DTD/svg11.dtd" >
<svg xmlns="http://www.w3.org/2000/svg">
<metadata>
This is a custom SVG webfont generated by Font Squirrel.
</metadata>
<defs>
<font id="webfontfq5mClxr" horiz-adv-x="630" >
<font-face units-per-em="1000" ascent="800" descent="-200" />
<missing-glyph horiz-adv-x="250" />
<glyph unicode=" "  horiz-adv-x="250" />
<glyph unicode="&#x09;" horiz-adv-x="250" />
<glyph unicode="&#xa0;" horiz-adv-x="250" />
<glyph unicode="!" horiz-adv-x="302" d="M222 0h-142v142h142v-142zM222 574q-14 -179 -14 -347h-114q0 168 -14 347v149h142v-149z" />
<glyph unicode="&#x22;" horiz-adv-x="445" d="M404 658l-21 -128h-100l-21 128v128h142v-128zM182 658l-21 -128h-100l-21 128v128h142v-128z" />
<glyph unicode="#" d="M374 437h-89l-29 -151h89zM617 503l-13 -66h-130l-29 -151h131l-13 -66h-131l-42 -220h-99l42 220h-90l-42 -220h-99l42 220h-131l13 66h130l29 151h-131l13 66h131l42 220h99l-42 -220h90l42 220h99l-42 -220h131z" />
<glyph unicode="$" horiz-adv-x="580" d="M335 -94h-79v94q-128 2 -216 58v104q102 -64 216 -68v226l-34 12q-31 10 -60.5 26.5t-58 41t-46 59t-17.5 73.5q0 75 60.5 125.5t155.5 62.5v97h79v-95q82 -4 152 -32v-116q-105 41 -152 50v-194q101 -38 153 -88.5t52 -128.5q0 -83 -56 -137t-149 -70v-100zM256 461v165 q-33 -7 -53.5 -26t-20.5 -49q0 -55 74 -90zM335 284v-180q63 22 63 84q0 58 -63 96z" />
<glyph unicode="%" horiz-adv-x="765" d="M612 176q0 101 -50 101t-50 -101t50 -101t50 101zM726 176q0 -72 -47.5 -124t-116.5 -52t-116.5 52t-47.5 124t47.5 124t116.5 52t116.5 -52t47.5 -124zM254 547q0 101 -50 101t-50 -101t50 -101t50 101zM368 547q0 -72 -47.5 -124t-116.5 -52t-116.5 52t-47.5 124 t47.5 124t116.5 52t116.5 -52t47.5 -124zM663 741l-430 -759h-130l430 759h130z" />
<glyph unicode="&#x26;" d="M289 -18q-66 0 -121 23.5t-91.5 75t-36.5 122.5q0 74 41 133t100 84q-39 69 -39 138q0 79 50.5 131t122.5 52t122.5 -49t50.5 -124q0 -61 -35 -113.5t-87 -81.5l82 -140q12 57 12 129h118q0 -143 -62 -246l69 -116h-132l-18 27q-64 -45 -146 -45zM305 473q41 41 41 117 q0 57 -31 57t-31 -60q0 -65 21 -114zM182 203q0 -36 10.5 -62t28 -39.5t36.5 -19.5t41 -6q51 0 86 31l-141 220q-61 -39 -61 -124z" />
<glyph unicode="'" horiz-adv-x="222" d="M182 642l-18 -143h-106l-18 143v144h142v-144z" />
<glyph unicode="(" horiz-adv-x="345" d="M344 -129h-121l-67 113q-22 39 -54.5 104.5t-47 122t-14.5 110.5q0 53 14.5 109.5t47 122t54.5 105.5l67 112h121q-76 -124 -119 -231t-43 -218t42.5 -218t119.5 -232z" />
<glyph unicode=")" horiz-adv-x="345" d="M304 321q0 -54 -14.5 -110.5t-47 -122t-54.5 -104.5l-67 -113h-121q77 125 119.5 232t42.5 218t-43 218t-119 231h121l67 -112q22 -40 54.5 -105.5t47 -122t14.5 -109.5z" />
<glyph unicode="*" horiz-adv-x="505" d="M466 296l-50 -86l-17 10q-28 16 -70 56t-56 51q2 -19 16 -75t14 -87v-20h-100v20q0 31 14 87t16 75q-14 -11 -56 -51t-70 -56l-17 -10l-50 86l18 10q27 16 83 32.5t73 23.5q-15 6 -71.5 22.5t-84.5 32.5l-18 10l50 86l17 -10q28 -16 70 -56t56 -51q-2 19 -16 75t-14 87 v20h100v-20q0 -31 -14 -87t-16 -75q14 11 56 51t70 56l17 10l50 -86l-18 -10q-27 -16 -83 -32.5t-73 -23.5q15 -6 71.5 -22.5t84.5 -32.5z" />
<glyph unicode="+" horiz-adv-x="575" d="M534 260h-188v-176h-118v176h-188v94h188v176h118v-176h188v-94z" />
<glyph unicode="," horiz-adv-x="302" d="M222 47l-107 -261h-89l54 261v95h142v-95z" />
<glyph unicode="-" horiz-adv-x="300" d="M260 260h-220v94h220v-94z" />
<glyph unicode="." horiz-adv-x="302" d="M222 0h-142v142h142v-142z" />
<glyph unicode="/" horiz-adv-x="338" d="M339 770l-220 -899h-120l220 899h120z" />
<glyph unicode="0" d="M440 363q0 58 -1.5 89.5t-13 78t-34.5 78.5q-35 48 -76 48t-76 -48q-23 -32 -34.5 -78.5t-13 -78t-1.5 -89.5t1.5 -90t13 -78.5t34.5 -78.5q35 -48 76 -48t76 48q23 32 34.5 78.5t13 78.5t1.5 90zM33 363q0 178 75 283t207 105q62 0 116 -26.5t89 -75.5q77 -108 77 -286 q0 -179 -77 -287q-35 -49 -89 -75.5t-116 -26.5t-116 26.5t-89 75.5q-77 108 -77 287z" />
<glyph unicode="1" d="M574 0h-459v94h176v525l-176 -52v94l205 69h114v-636h140v-94z" />
<glyph unicode="2" d="M40 102q23 56 70 105.5t96 85.5l96 72q47 36 76.5 80t29.5 95q0 50 -40.5 83.5t-95.5 33.5q-99 0 -206 -51v104q87 41 206 41q112 0 195 -58.5t83 -152.5q0 -34 -14.5 -67.5t-31.5 -57.5t-52.5 -55.5t-56.5 -47.5l-63 -46q-115 -81 -151 -172h369v-94h-510v102z" />
<glyph unicode="3" d="M400 389q49 -9 85 -30t55 -48t27.5 -53.5t8.5 -52.5q0 -103 -79 -167t-205 -64t-212 29v105q120 -40 212 -40q68 0 105 38.5t37 98.5q0 25 -11.5 48t-31.5 36q-73 47 -155 47h-55v94h55q70 0 121 32.5t51 88.5q0 46 -26 76t-90 30q-78 0 -186 -36v105q75 25 186 25 q119 0 188.5 -54.5t69.5 -145.5q0 -60 -40.5 -100t-109.5 -62z" />
<glyph unicode="4" d="M503 0h-143v207h-350v94l350 424h143v-424h99v-94h-99v-207zM152 301h208v251z" />
<glyph unicode="5" d="M576 218q0 -33 -8.5 -63.5t-33.5 -64.5t-64 -58.5t-107 -41t-157 -16.5q-81 0 -128 15v104q81 -25 128 -25q57 0 99 7.5t77 31.5q52 37 52 111q0 38 -19 70.5t-52 47.5q-73 34 -211 34q-20 0 -48 -1v356h446v-94h-328v-169q132 -7 222 -48q59 -27 95.5 -80t36.5 -116z " />
<glyph unicode="6" d="M315 68q133 0 133 158q0 73 -34.5 117.5t-78.5 44.5q-65 0 -112.5 -41t-47.5 -101q0 -72 39 -125t101 -53zM335 473q122 0 188.5 -68.5t66.5 -178.5q0 -65 -21 -114t-59 -79t-87 -44.5t-108 -14.5q-65 0 -122 28.5t-91 81.5q-36 56 -49 124.5t-13 154.5t18.5 154 t49.5 111t75 71.5t91.5 40t101.5 11.5q87 0 143 -28v-107q-80 41 -143 41q-84 0 -133.5 -62t-57.5 -167q64 45 150 45z" />
<glyph unicode="7" d="M476 612h-436v113h550v-113q-72 -81 -184 -265q-97 -160 -129 -347h-144q28 158 166 388q47 78 177 224z" />
<glyph unicode="8" d="M419 573q0 43 -30.5 73t-73.5 30t-73.5 -30t-30.5 -73q0 -44 36.5 -71t100.5 -50q33 18 52 50.5t19 70.5zM448 187q0 107 -167 171q-46 -24 -72.5 -70.5t-26.5 -100.5q0 -57 39 -97.5t94 -40.5t94 40.5t39 97.5zM590 187q0 -95 -82 -154t-193 -59t-193 59t-82 154 q0 68 47 120t123 83q-127 72 -127 183q0 79 69 128.5t163 49.5t163 -49.5t69 -128.5q0 -99 -126 -153q77 -40 123 -99.5t46 -133.5z" />
<glyph unicode="9" d="M182 499q0 -73 34.5 -117.5t78.5 -44.5q65 0 112.5 41t47.5 101q0 72 -39 125t-101 53q-133 0 -133 -158zM40 499q0 65 21 114t59 79t87 44.5t108 14.5q65 0 122 -28.5t91 -81.5q36 -56 49 -124.5t13 -153.5q0 -186 -82 -284q-44 -53 -111 -79t-143 -26q-87 0 -143 28 v107q80 -41 143 -41q84 0 133.5 62t57.5 167q-64 -45 -150 -45q-122 0 -188.5 68.5t-66.5 178.5z" />
<glyph unicode=":" horiz-adv-x="302" d="M222 0h-142v142h142v-142zM222 388h-142v142h142v-142z" />
<glyph unicode=";" horiz-adv-x="302" d="M222 388h-142v142h142v-142zM222 47l-107 -261h-89l54 261v95h142v-95z" />
<glyph unicode="&#x3c;" horiz-adv-x="547" d="M508 77l-468 212v36l468 212v-108l-259 -122l259 -122v-108z" />
<glyph unicode="=" horiz-adv-x="575" d="M534 166h-494v94h494v-94zM534 354h-494v94h494v-94z" />
<glyph unicode="&#x3e;" horiz-adv-x="547" d="M508 325v-36l-468 -212v108l259 122l-259 122v108z" />
<glyph unicode="?" d="M345 0h-142v142h142v-142zM590 561q0 -45 -27.5 -79.5t-63 -53.5t-76 -46.5t-58.5 -55.5q-20 -32 -20 -82v-17h-142v17q0 58 29 104q19 29 58 54t72.5 40.5t59.5 42.5t26 63q0 52 -47 75.5t-117 23.5q-109 0 -226 -53v102q101 45 225 45q81 0 148.5 -18t113 -60 t45.5 -102z" />
<glyph unicode="@" horiz-adv-x="877" d="M662 521q-26 116 -194 116q-141 0 -219.5 -85.5t-78.5 -254.5t78 -254.5t217 -85.5q39 0 101 12v-82q-41 -8 -89 -8q-96 0 -172 23.5t-133.5 72.5t-88.5 130.5t-31 191.5t31 191.5t88 130.5t132 72.5t169 23.5q154 0 234 -61q23 -18 39 -41t24 -43t12 -51.5t4.5 -50 t0.5 -54.5v-343h-118v67q-70 -67 -143 -67q-33 0 -63 12.5t-56 37.5t-41.5 69t-15.5 102q0 55 15.5 98.5t40 69.5t57.5 42.5t64 23t63 6.5q40 0 73 -11zM668 463q-20 7 -41 7q-52 0 -94 -31q-54 -39 -54 -130q0 -74 31 -109t82 -35q46 0 76 21v247v15v15z" />
<glyph unicode="A" horiz-adv-x="739" d="M730 0h-150l-76 190h-296l-73 -190h-125l279 725h150zM464 289l-112 278l-106 -278h218z" />
<glyph unicode="B" horiz-adv-x="678" d="M448 387q82 -20 136 -69.5t54 -124.5q0 -91 -74 -141q-26 -19 -58 -30t-73.5 -15.5t-69.5 -5.5t-80 -1h-203v725h194q46 0 71 -1t62 -5t66 -14.5t54 -28.5q38 -27 56 -63.5t18 -73.5q0 -33 -13.5 -59.5t-36.5 -44.5t-48.5 -29.5t-54.5 -18.5zM230 338v-239h94q32 0 49 1 t41 6.5t40 17.5q34 26 34 72q0 57 -48 100q-23 20 -54.5 29.5t-53.5 11t-63 1.5h-39zM230 437h50q32 0 49 1t42 7.5t42 20.5q38 30 38 71t-32 66q-14 11 -33 16t-33 6t-40 1h-83v-189z" />
<glyph unicode="C" horiz-adv-x="700" d="M32 362q0 109 41.5 195t131.5 140t217 54q118 0 238 -41v-112q-154 54 -238 54q-95 0 -153 -54q-71 -68 -71 -236q0 -167 71 -235q58 -54 145 -54q39 0 86 13.5t78 27.5t82 39v-124q-113 -55 -242 -55q-125 0 -214 54t-130.5 140t-41.5 194z" />
<glyph unicode="D" horiz-adv-x="759" d="M570 365q0 109 -57 188q-25 34 -60.5 51t-60.5 19.5t-70 2.5h-92v-527h61q38 0 58.5 1.5t52.5 8t57 22.5t47 43q64 78 64 191zM720 364q0 -152 -108 -258q-39 -38 -82.5 -61t-98.5 -32t-91 -11t-102 -2h-158v725h189q62 0 96 -2t85 -11t92 -32t77 -61q101 -108 101 -255z " />
<glyph unicode="E" horiz-adv-x="659" d="M632 0h-552v725h540v-99h-390v-189h311v-99h-311v-239h402v-99z" />
<glyph unicode="F" horiz-adv-x="640" d="M600 626h-370v-189h294v-99h-294v-338h-150v725h520v-99z" />
<glyph unicode="G" horiz-adv-x="731" d="M32 362q0 50 10.5 100t39.5 103.5t73 93.5t117.5 66t167.5 26q121 0 252 -42v-110q-167 53 -253 53q-104 0 -164 -54q-77 -68 -77 -236q0 -167 77 -235q60 -54 157 -54q46 0 110 16v170h-76v99h226v-331q-148 -53 -263 -53q-186 0 -291.5 110t-105.5 278z" />
<glyph unicode="H" horiz-adv-x="780" d="M700 0h-150v313h-320v-313h-150v725h150v-313h320v313h150v-725z" />
<glyph unicode="I" horiz-adv-x="310" d="M230 0h-150v725h150v-725z" />
<glyph unicode="J" horiz-adv-x="503" d="M424 276q0 -60 -2 -92t-17 -76t-45 -73q-66 -61 -195 -61q-85 0 -155 23v110q107 -34 149 -34q54 0 85 36q14 16 21 41.5t8 44.5t1 54v476h150v-449z" />
<glyph unicode="K" horiz-adv-x="678" d="M661 0h-150l-236 307l-45 -52v-255h-150v725h150v-296l257 296h152l-284 -326z" />
<glyph unicode="L" horiz-adv-x="606" d="M596 0h-516v725h150v-626h366v-99z" />
<glyph unicode="M" horiz-adv-x="916" d="M836 0h-150v576l-159 -525h-150l-172 525v-576h-125v725h226l156 -476l145 476h229v-725z" />
<glyph unicode="N" horiz-adv-x="780" d="M205 0h-125v725h150l345 -532v532h125v-725h-150l-345 532v-532z" />
<glyph unicode="O" horiz-adv-x="855" d="M658 363q0 167 -75 235q-60 54 -155 54t-155 -54q-75 -68 -75 -235q0 -168 75 -236q60 -54 155 -54t155 54q75 68 75 236zM428 751q189 0 292.5 -111t103.5 -277q0 -81 -25.5 -150.5t-73.5 -123t-124.5 -84.5t-172.5 -31q-189 0 -292.5 110.5t-103.5 278.5 q0 108 43.5 194.5t134.5 140t218 53.5z" />
<glyph unicode="P" horiz-adv-x="699" d="M668 513q0 -108 -83 -173q-37 -29 -90 -44t-90 -17t-106 -2h-69v-277h-150v725h219q71 0 109.5 -2t92 -14.5t88.5 -38.5q79 -58 79 -157zM230 376h108q34 0 52.5 1t44 9.5t43.5 25.5q40 38 40 99q0 55 -39 85q-17 14 -43 21t-45 8t-54 1h-107v-250z" />
<glyph unicode="Q" horiz-adv-x="855" d="M658 363q0 77 -15.5 136t-59.5 99q-60 54 -155 54t-155 -54q-44 -40 -59.5 -99t-15.5 -136q0 -78 15.5 -137t59.5 -99q60 -54 155 -54q40 0 75 10q-46 64 -131 86l26 97q62 -17 114.5 -52t81.5 -76q64 69 64 225zM428 751q96 0 172.5 -31t124.5 -84.5t73.5 -123 t25.5 -149.5q0 -111 -46.5 -199t-126.5 -135q61 -92 165 -92v-99q-86 0 -159 43.5t-107 107.5q-57 -15 -122 -15q-96 0 -172.5 31t-124.5 84.5t-73.5 123.5t-25.5 150t25.5 150t74 123.5t124.5 84t172 30.5z" />
<glyph unicode="R" horiz-adv-x="697" d="M613 507q0 -46 -15.5 -86t-55 -75.5t-100.5 -52.5l258 -293h-174l-243 277h-41h-12v-277h-150v725h186q67 0 103 -2t86 -15t84 -40q74 -58 74 -161zM463 507q0 25 -6 44.5t-14.5 31.5t-23.5 21t-26.5 13t-30 6.5t-27.5 2.5h-25h-5h-75v-250h51q35 0 54 1t45.5 9t44.5 24 q38 34 38 97z" />
<glyph unicode="S" horiz-adv-x="669" d="M628 205q0 -112 -94 -171.5t-250 -59.5q-152 0 -244 52v131q145 -84 283 -84q68 0 111.5 23.5t43.5 76.5q0 45 -37 73.5t-118 55.5l-67 22q-125 41 -170.5 84t-45.5 112q0 112 87 171.5t215 59.5q107 0 211 -40v-114q-49 19 -74.5 27.5t-68 18t-79.5 9.5t-66.5 -7.5 t-52 -29t-22.5 -56.5q0 -41 31.5 -60t126.5 -50l68 -22q113 -37 162.5 -91.5t49.5 -130.5z" />
<glyph unicode="T" horiz-adv-x="659" d="M650 626h-245v-626h-150v626h-245v99h640v-99z" />
<glyph unicode="U" horiz-adv-x="780" d="M700 279q0 -45 -1.5 -68.5t-8.5 -59.5t-24 -63.5t-46 -49.5q-82 -64 -230 -64t-230 64q-29 22 -46 49.5t-24 63.5t-8.5 59.5t-1.5 68.5v446h150v-470q0 -35 1.5 -53.5t11 -45t29.5 -44.5q43 -39 118 -39t118 39q20 18 29.5 44.5t11 45t1.5 53.5v470h150v-446z" />
<glyph unicode="V" horiz-adv-x="728" d="M382 161l211 564h125l-273 -725h-150l-285 725h150z" />
<glyph unicode="W" horiz-adv-x="1053" d="M1044 725l-174 -725h-194l-151 502l-131 -502h-197l-187 725h150l149 -576l149 576h150l173 -577l138 577h125z" />
<glyph unicode="X" horiz-adv-x="728" d="M727 0h-168l-202 265l-211 -265h-147l286 360l-278 365h168l196 -258l205 258h148l-281 -352z" />
<glyph unicode="Y" horiz-adv-x="717" d="M440 0h-150v290l-280 435h150l216 -336l207 336h125l-268 -435v-290z" />
<glyph unicode="Z" horiz-adv-x="681" d="M642 0h-602v127l453 499h-435v99h584v-127l-453 -499h453v-99z" />
<glyph unicode="[" horiz-adv-x="377" d="M368 -129h-328v899h328v-94h-185l-1 -711h186v-94z" />
<glyph unicode="\" horiz-adv-x="338" d="M339 -129h-120l-220 899h120z" />
<glyph unicode="]" horiz-adv-x="377" d="M338 -129h-328v94h185l1 711h-186v94h328v-899z" />
<glyph unicode="^" horiz-adv-x="515" d="M496 362h-127l-112 231l-112 -231h-127l176 361h126z" />
<glyph unicode="_" horiz-adv-x="500" d="M500 -94h-500v94h500v-94z" />
<glyph unicode="`" horiz-adv-x="293" d="M235 550h-89l-106 173v63h142v-63z" />
<glyph unicode="a" horiz-adv-x="580" d="M293 548q46 0 82 -7t59 -16.5t39 -28.5t24.5 -33.5t12.5 -41.5t4.5 -43t0.5 -46v-332h-143v53q-82 -71 -168 -71q-71 0 -116.5 43.5t-45.5 111.5q0 86 79 133q46 27 107.5 37t143.5 12v34q0 25 -2 38.5t-10.5 30.5t-29 24.5t-53.5 7.5q-77 0 -182 -49v104q81 39 198 39z M372 120v123q-100 -1 -145 -28q-43 -29 -43 -72q0 -31 19.5 -49t56.5 -18q54 0 112 44z" />
<glyph unicode="b" horiz-adv-x="601" d="M567 304q0 -134 -60 -218q-75 -104 -247 -104q-110 0 -185 37v751h142v-321q63 99 170 99q32 0 60.5 -10.5t57 -35t45.5 -75.5t17 -123zM268 76q81 0 111.5 57t30.5 157q0 90 -19 127t-60 37q-36 0 -67.5 -23.5t-46.5 -60.5v-288q27 -6 51 -6z" />
<glyph unicode="c" horiz-adv-x="557" d="M184 265q0 -51 12 -90.5t49 -69t97 -29.5q56 0 174 32v-102q-88 -24 -174 -24q-148 0 -224 77.5t-76 205.5q0 40 8 77.5t29 76t54 66.5t87 45.5t124 17.5q84 0 172 -21v-99q-120 26 -171 26q-161 0 -161 -189z" />
<glyph unicode="d" horiz-adv-x="601" d="M35 249q0 78 23 137t63.5 93.5t91.5 51.5t112 17q35 0 60 -2v224h142v-770h-142v72q-27 -42 -66.5 -66t-87.5 -24q-78 0 -137 64.5t-59 202.5zM334 454q-41 0 -70 -15t-44 -43.5t-21.5 -62t-6.5 -77.5q0 -90 25 -135t70 -45q34 0 60.5 23t37.5 59v291q-26 5 -51 5z" />
<glyph unicode="e" horiz-adv-x="597" d="M198 333h212q-13 131 -100 131q-42 0 -72 -33t-40 -98zM336 -18q-63 0 -116 17t-95 51t-66 91.5t-24 131.5q0 62 17 111t44 79t63.5 50t72 27.5t72.5 7.5t71.5 -8t67.5 -27t57 -47.5t39 -73.5t15 -101q0 -20 -2 -42h-360q1 -51 12 -86t31.5 -53.5t46.5 -26t63 -7.5 q86 0 191 37v-94q-105 -37 -200 -37z" />
<glyph unicode="f" horiz-adv-x="422" d="M130 525q1 51 5 86t16 71t34 57.5t59.5 35t90.5 13.5q52 0 97 -14v-96q-55 16 -80 16q-23 0 -39 -9.5t-23.5 -21t-11.5 -37.5t-4.5 -42t-0.5 -53v-6h142v-84h-142v-441h-143v441h-94v84h94z" />
<glyph unicode="g" horiz-adv-x="568" d="M277 231q30 0 48.5 10t25.5 29.5t9 34t2 37.5q0 72 -28 95q-23 17 -57 17q-24 0 -41 -8t-25.5 -18t-13 -27.5t-5 -28.5t-0.5 -30q0 -71 28 -94q21 -17 57 -17zM35 342q0 26 7.5 53t25.5 55t45 49.5t69.5 35t94.5 13.5q66 0 118 -22q73 69 159 69v-94q-54 0 -94 -18 q59 -60 59 -141q0 -88 -67 -147t-175 -59q-25 0 -48 3q-2 -4 -2 -9q0 -31 68 -41l140 -28q134 -23 134 -116q0 -138 -276 -138h-7h-8q-149 0 -236 19v108q156 -33 304 -33q37 0 59 5.5t22 23.5q0 25 -33 31q-2 1 -3 1l-140 27q-22 4 -37.5 8t-36 13t-33.5 20t-22.5 29.5 t-9.5 41.5q0 37 27 68q-48 27 -76 73t-28 100z" />
<glyph unicode="h" horiz-adv-x="623" d="M407 351q0 19 -0.5 30t-4.5 27t-11 24.5t-21 15t-34 6.5q-67 0 -119 -57v-397h-142v770h142v-300q76 78 175 78q29 0 52.5 -5.5t39.5 -17.5t28 -23.5t18.5 -32.5t11 -33.5t6 -38t1.5 -35.5v-34v-328h-142v351z" />
<glyph unicode="i" horiz-adv-x="292" d="M217 614h-142v111h142v-111zM217 0h-142v530h142v-530z" />
<glyph unicode="j" horiz-adv-x="292" d="M217 614h-142v111h142v-111zM-1 -117q22 0 36.5 7t22.5 17t12 29t4.5 33t0.5 40v521h142v-490q0 -53 -1.5 -81t-12.5 -65.5t-32 -58.5q-46 -46 -152 -46q-54 0 -94 14v100q55 -20 74 -20z" />
<glyph unicode="k" horiz-adv-x="544" d="M532 0h-134l-46 65l-54 75q-31 40 -47 63l-34 -44v-159h-142v770h142v-429l145 189h138l-168 -220z" />
<glyph unicode="l" horiz-adv-x="292" d="M217 0h-142v770h142v-770z" />
<glyph unicode="m" horiz-adv-x="925" d="M393 350q0 19 -0.5 30t-4.5 27t-11.5 25t-22 15.5t-35.5 6.5q-58 0 -102 -49v-405h-142v530h142v-48q67 66 155 66q47 0 87 -20t59 -64q71 84 170 84q77 0 120 -44q20 -21 30 -53.5t11.5 -56t1.5 -68.5v-326h-142v350q0 19 -0.5 30t-4.5 27t-11.5 25t-22 15.5t-35.5 6.5 q-58 0 -103 -51q3 -24 3 -77v-326h-142v350z" />
<glyph unicode="n" horiz-adv-x="623" d="M407 351q0 19 -0.5 30t-4.5 27t-11 24.5t-21 15t-34 6.5q-67 0 -119 -57v-397h-142v530h142v-60q76 78 175 78q29 0 52.5 -5.5t39.5 -17.5t28 -23.5t18.5 -32.5t11 -33.5t6 -38t1.5 -35.5v-34v-328h-142v351z" />
<glyph unicode="o" horiz-adv-x="625" d="M434 265q0 36 -2 59t-12 51.5t-29 47.5q-31 31 -78 31t-78 -31q-27 -27 -35 -64.5t-8 -93.5q0 -36 2 -59t12 -51.5t29 -47.5q31 -31 78 -31t78 31q27 27 35 64.5t8 93.5zM313 548q133 0 205.5 -81.5t72.5 -201.5t-72.5 -201.5t-205.5 -81.5t-205.5 81.5t-72.5 201.5 t72.5 201.5t205.5 81.5z" />
<glyph unicode="p" horiz-adv-x="601" d="M567 304q0 -134 -60 -218q-37 -51 -95 -77.5t-152 -26.5q-22 0 -43 2v-177h-142v723h142v-81q63 99 170 99q32 0 60.5 -10.5t57 -35t45.5 -75.5t17 -123zM268 76q42 0 71 16.5t44 47.5t21 66.5t6 83.5q0 90 -19 127t-60 37q-36 0 -67.5 -23.5t-46.5 -60.5v-288 q27 -6 51 -6z" />
<glyph unicode="q" horiz-adv-x="601" d="M35 249q0 153 81 226t209 73t202 -37v-704h-142v265q-27 -42 -66.5 -66t-87.5 -24q-78 0 -137 64.5t-59 202.5zM334 454q-41 0 -70 -15t-44 -43.5t-21.5 -62t-6.5 -77.5q0 -90 25 -135t70 -45q34 0 60.5 23t37.5 59v291q-26 5 -51 5z" />
<glyph unicode="r" horiz-adv-x="455" d="M438 428q-32 7 -57 7q-57 0 -102 -33t-62 -85v-317h-142v530h142v-103q27 56 71 88.5t104 32.5q31 0 46 -3v-117z" />
<glyph unicode="s" horiz-adv-x="539" d="M498 167q0 -84 -68.5 -134.5t-181.5 -50.5q-132 0 -189 26v108q89 -40 210 -40q40 0 63.5 16.5t23.5 45.5q0 26 -17.5 39t-47.5 23l-116 37q-51 17 -83.5 56t-32.5 90q0 74 69.5 119.5t169.5 45.5q67 0 147 -20v-101q-108 27 -153 27q-91 0 -91 -48q0 -14 11 -24.5 t21 -15t30 -10.5l116 -38q119 -39 119 -151z" />
<glyph unicode="t" horiz-adv-x="428" d="M273 172q0 -25 1.5 -38t7.5 -28.5t21 -22.5t39 -7q20 0 69 7v-94q-59 -7 -102 -7q-37 0 -65 5.5t-47 13t-31.5 23.5t-19.5 30t-10.5 39.5t-4.5 44.5t-1 52v251h-94v84h94v125h143v-125h138v-84h-138v-269z" />
<glyph unicode="u" horiz-adv-x="623" d="M217 180q0 -24 1.5 -38t8 -31.5t22 -26t40.5 -8.5q66 0 118 57v397h142v-530h-142v60q-75 -78 -172 -78q-76 0 -118 45q-20 21 -29.5 53.5t-11 56t-1.5 67.5v326h142v-350z" />
<glyph unicode="v" horiz-adv-x="561" d="M297 156l137 374h118l-194 -530h-142l-206 530h142z" />
<glyph unicode="w" horiz-adv-x="818" d="M808 530l-141 -530h-174l-77 303l-82 -303h-167l-157 530h128l115 -389l106 389h128l99 -388l104 388h118z" />
<glyph unicode="x" horiz-adv-x="561" d="M552 0h-142l-136 182l-136 -182h-138l205 274l-191 256h142l132 -177l132 177h138l-201 -269z" />
<glyph unicode="y" horiz-adv-x="561" d="M552 530l-264 -723h-119l58 158l-217 565h142l146 -371l136 371h118z" />
<glyph unicode="z" horiz-adv-x="557" d="M516 0h-474v111l321 325h-307v94h460v-111l-321 -325h321v-94z" />
<glyph unicode="{" horiz-adv-x="406" d="M172 321q72 -47 72 -81v-201q0 -35 32.5 -54.5t77.5 -19.5h42v-94h-42q-92 0 -160 46t-68 122v186q-51 49 -116 49v94q67 0 116 49v185q0 76 68 122t160 46h42v-94h-42q-45 0 -77.5 -19.5t-32.5 -54.5v-201q0 -33 -72 -80z" />
<glyph unicode="|" horiz-adv-x="278" d="M198 -129h-118v899h118v-899z" />
<glyph unicode="}" horiz-adv-x="406" d="M234 321q-72 47 -72 80v201q0 35 -32.5 54.5t-77.5 19.5h-42v94h42q92 0 160 -46t68 -122v-185q49 -49 116 -49v-94q-65 0 -116 -49v-186q0 -76 -68 -122t-160 -46h-42v94h42q45 0 77.5 19.5t32.5 54.5v201q0 34 72 81z" />
<glyph unicode="~" horiz-adv-x="650" d="M221 419q32 0 60.5 -13.5t48.5 -32.5t37 -38t33.5 -32.5t31.5 -13.5q13 0 21 9.5t11 29.5t3.5 34t0.5 39h142q0 -85 -53.5 -145.5t-127.5 -60.5q-27 0 -52 9.5t-42 24t-34 31.5t-29.5 31.5t-26.5 24t-27 9.5t-21 -9.5t-11 -29.5t-3.5 -34t-0.5 -39h-142q0 85 53.5 145.5 t127.5 60.5z" />
<glyph unicode="&#xa8;" horiz-adv-x="710" d="M553 614h-143v111h143v-111zM300 614h-143v111h143v-111z" />
<glyph unicode="&#xaa;" horiz-adv-x="580" d="M293 548q46 0 82 -7t59 -16.5t39 -28.5t24.5 -33.5t12.5 -41.5t4.5 -43t0.5 -46v-332h-143v53q-82 -71 -168 -71q-71 0 -116.5 43.5t-45.5 111.5q0 86 79 133q46 27 107.5 37t143.5 12v34q0 25 -2 38.5t-10.5 30.5t-29 24.5t-53.5 7.5q-77 0 -182 -49v104q81 39 198 39z M372 120v123q-100 -1 -145 -28q-43 -29 -43 -72q0 -31 19.5 -49t56.5 -18q54 0 112 44z" />
<glyph unicode="&#xad;" horiz-adv-x="300" d="M260 260h-220v94h220v-94z" />
<glyph unicode="&#xaf;" horiz-adv-x="710" d="M569 614h-428v94h428v-94z" />
<glyph unicode="&#xb2;" d="M40 102q23 56 70 105.5t96 85.5l96 72q47 36 76.5 80t29.5 95q0 50 -40.5 83.5t-95.5 33.5q-99 0 -206 -51v104q87 41 206 41q112 0 195 -58.5t83 -152.5q0 -34 -14.5 -67.5t-31.5 -57.5t-52.5 -55.5t-56.5 -47.5l-63 -46q-115 -81 -151 -172h369v-94h-510v102z" />
<glyph unicode="&#xb3;" d="M400 389q49 -9 85 -30t55 -48t27.5 -53.5t8.5 -52.5q0 -103 -79 -167t-205 -64t-212 29v105q120 -40 212 -40q68 0 105 38.5t37 98.5q0 25 -11.5 48t-31.5 36q-73 47 -155 47h-55v94h55q70 0 121 32.5t51 88.5q0 46 -26 76t-90 30q-78 0 -186 -36v105q75 25 186 25 q119 0 188.5 -54.5t69.5 -145.5q0 -60 -40.5 -100t-109.5 -62z" />
<glyph unicode="&#xb4;" horiz-adv-x="365" d="M324 772l-170 -158h-86l114 158h142z" />
<glyph unicode="&#xb9;" d="M574 0h-459v94h176v525l-176 -52v94l205 69h114v-636h140v-94z" />
<glyph unicode="&#xba;" horiz-adv-x="625" d="M434 265q0 36 -2 59t-12 51.5t-29 47.5q-31 31 -78 31t-78 -31q-27 -27 -35 -64.5t-8 -93.5q0 -36 2 -59t12 -51.5t29 -47.5q31 -31 78 -31t78 31q27 27 35 64.5t8 93.5zM313 548q133 0 205.5 -81.5t72.5 -201.5t-72.5 -201.5t-205.5 -81.5t-205.5 81.5t-72.5 201.5 t72.5 201.5t205.5 81.5z" />
<glyph unicode="&#xc0;" horiz-adv-x="739" d="M730 0h-150l-76 190h-296l-73 -190h-125l279 725h150zM464 289l-112 278l-106 -278h218zM436 809h-86l-170 158h142z" />
<glyph unicode="&#xc1;" horiz-adv-x="739" d="M521 967l-170 -158h-86l114 158h142zM730 0h-150l-76 190h-296l-73 -190h-125l279 725h150zM464 289l-112 278l-106 -278h218z" />
<glyph unicode="&#xc2;" horiz-adv-x="739" d="M562 809h-114l-97 74l-97 -74h-114l140 129h142zM730 0h-150l-76 190h-296l-73 -190h-125l279 725h150zM464 289l-112 278l-106 -278h218z" />
<glyph unicode="&#xc3;" horiz-adv-x="739" d="M260 1035q32 0 60.5 -13.5t48.5 -32.5t37 -38t33.5 -32.5t31.5 -13.5q13 0 21 9.5t11 29.5t3.5 34t0.5 39h142q0 -85 -53.5 -145.5t-127.5 -60.5q-27 0 -52 9.5t-42 24t-34 31.5t-29.5 31.5t-26.5 24t-27 9.5t-21 -9.5t-11 -29.5t-3.5 -34t-0.5 -39h-142q0 85 53.5 145.5 t127.5 60.5zM730 0h-150l-76 190h-296l-73 -190h-125l279 725h150zM464 289l-112 278l-106 -278h218z" />
<glyph unicode="&#xc4;" horiz-adv-x="739" d="M549 809h-143v111h143v-111zM296 809h-143v111h143v-111zM730 0h-150l-76 190h-296l-73 -190h-125l279 725h150zM464 289l-112 278l-106 -278h218z" />
<glyph unicode="&#xc5;" horiz-adv-x="739" d="M730 0h-150l-76 190h-296l-73 -190h-125l279 725h150zM464 289l-112 278l-106 -278h218zM436 959q0 35 -25 60t-60 25t-60 -25t-25 -60t25 -60t60 -25t60 25t25 60zM522 959q0 -66 -50.5 -111t-120.5 -45t-120.5 45t-50.5 111t50.5 111t120.5 45t120.5 -45t50.5 -111z " />
<glyph unicode="&#xc8;" horiz-adv-x="659" d="M632 0h-552v725h540v-99h-390v-189h311v-99h-311v-239h402v-99zM436 809h-86l-170 158h142z" />
<glyph unicode="&#xc9;" horiz-adv-x="659" d="M520 967l-170 -158h-86l114 158h142zM632 0h-552v725h540v-99h-390v-189h311v-99h-311v-239h402v-99z" />
<glyph unicode="&#xca;" horiz-adv-x="659" d="M561 809h-114l-97 74l-97 -74h-114l140 129h142zM632 0h-552v725h540v-99h-390v-189h311v-99h-311v-239h402v-99z" />
<glyph unicode="&#xcb;" horiz-adv-x="659" d="M548 809h-143v111h143v-111zM295 809h-143v111h143v-111zM632 0h-552v725h540v-99h-390v-189h311v-99h-311v-239h402v-99z" />
<glyph unicode="&#xcc;" horiz-adv-x="310" d="M230 0h-150v725h150v-725zM241 809h-86l-170 158h142z" />
<glyph unicode="&#xcd;" horiz-adv-x="310" d="M325 967l-170 -158h-86l114 158h142zM230 0h-150v725h150v-725z" />
<glyph unicode="&#xce;" horiz-adv-x="310" d="M366 809h-114l-97 74l-97 -74h-114l140 129h142zM230 0h-150v725h150v-725z" />
<glyph unicode="&#xcf;" horiz-adv-x="310" d="M353 809h-143v111h143v-111zM100 809h-143v111h143v-111zM230 0h-150v725h150v-725z" />
<glyph unicode="&#xd0;" horiz-adv-x="759" d="M570 365q0 109 -57 188q-25 34 -60.5 51t-60.5 19.5t-70 2.5h-92v-214h153v-99h-153v-214h61q38 0 58.5 1.5t52.5 8t57 22.5t47 43q64 78 64 191zM720 364q0 -152 -108 -258q-39 -38 -82.5 -61t-98.5 -32t-91 -11t-102 -2h-158v313h-72v99h72v313h189q62 0 96 -2t85 -11 t92 -32t77 -61q101 -108 101 -255z" />
<glyph unicode="&#xd1;" horiz-adv-x="780" d="M286 1035q32 0 60.5 -13.5t48.5 -32.5t37 -38t33.5 -32.5t31.5 -13.5q13 0 21 9.5t11 29.5t3.5 34t0.5 39h142q0 -85 -53.5 -145.5t-127.5 -60.5q-27 0 -52 9.5t-42 24t-34 31.5t-29.5 31.5t-26.5 24t-27 9.5t-21 -9.5t-11 -29.5t-3.5 -34t-0.5 -39h-142q0 85 53.5 145.5 t127.5 60.5zM205 0h-125v725h150l345 -532v532h125v-725h-150l-345 532v-532z" />
<glyph unicode="&#xd2;" horiz-adv-x="855" d="M658 363q0 167 -75 235q-60 54 -155 54t-155 -54q-75 -68 -75 -235q0 -168 75 -236q60 -54 155 -54t155 54q75 68 75 236zM428 751q189 0 292.5 -111t103.5 -277q0 -81 -25.5 -150.5t-73.5 -123t-124.5 -84.5t-172.5 -31q-189 0 -292.5 110.5t-103.5 278.5 q0 108 43.5 194.5t134.5 140t218 53.5zM513 809h-86l-170 158h142z" />
<glyph unicode="&#xd3;" horiz-adv-x="855" d="M598 967l-170 -158h-86l114 158h142zM658 363q0 167 -75 235q-60 54 -155 54t-155 -54q-75 -68 -75 -235q0 -168 75 -236q60 -54 155 -54t155 54q75 68 75 236zM428 751q189 0 292.5 -111t103.5 -277q0 -81 -25.5 -150.5t-73.5 -123t-124.5 -84.5t-172.5 -31 q-189 0 -292.5 110.5t-103.5 278.5q0 108 43.5 194.5t134.5 140t218 53.5z" />
<glyph unicode="&#xd4;" horiz-adv-x="855" d="M639 809h-114l-97 74l-97 -74h-114l140 129h142zM658 363q0 167 -75 235q-60 54 -155 54t-155 -54q-75 -68 -75 -235q0 -168 75 -236q60 -54 155 -54t155 54q75 68 75 236zM428 751q189 0 292.5 -111t103.5 -277q0 -81 -25.5 -150.5t-73.5 -123t-124.5 -84.5t-172.5 -31 q-189 0 -292.5 110.5t-103.5 278.5q0 108 43.5 194.5t134.5 140t218 53.5z" />
<glyph unicode="&#xd5;" horiz-adv-x="855" d="M324 1035q32 0 60.5 -13.5t48.5 -32.5t37 -38t33.5 -32.5t31.5 -13.5q13 0 21 9.5t11 29.5t3.5 34t0.5 39h142q0 -85 -53.5 -145.5t-127.5 -60.5q-27 0 -52 9.5t-42 24t-34 31.5t-29.5 31.5t-26.5 24t-27 9.5t-21 -9.5t-11 -29.5t-3.5 -34t-0.5 -39h-142q0 85 53.5 145.5 t127.5 60.5zM658 363q0 167 -75 235q-60 54 -155 54t-155 -54q-75 -68 -75 -235q0 -168 75 -236q60 -54 155 -54t155 54q75 68 75 236zM428 751q189 0 292.5 -111t103.5 -277q0 -81 -25.5 -150.5t-73.5 -123t-124.5 -84.5t-172.5 -31q-189 0 -292.5 110.5t-103.5 278.5 q0 108 43.5 194.5t134.5 140t218 53.5z" />
<glyph unicode="&#xd6;" horiz-adv-x="855" d="M626 809h-143v111h143v-111zM373 809h-143v111h143v-111zM658 363q0 167 -75 235q-60 54 -155 54t-155 -54q-75 -68 -75 -235q0 -168 75 -236q60 -54 155 -54t155 54q75 68 75 236zM428 751q189 0 292.5 -111t103.5 -277q0 -81 -25.5 -150.5t-73.5 -123t-124.5 -84.5 t-172.5 -31q-189 0 -292.5 110.5t-103.5 278.5q0 108 43.5 194.5t134.5 140t218 53.5z" />
<glyph unicode="&#xd9;" horiz-adv-x="780" d="M700 279q0 -45 -1.5 -68.5t-8.5 -59.5t-24 -63.5t-46 -49.5q-82 -64 -230 -64t-230 64q-29 22 -46 49.5t-24 63.5t-8.5 59.5t-1.5 68.5v446h150v-470q0 -35 1.5 -53.5t11 -45t29.5 -44.5q43 -39 118 -39t118 39q20 18 29.5 44.5t11 45t1.5 53.5v470h150v-446zM476 809 h-86l-170 158h142z" />
<glyph unicode="&#xda;" horiz-adv-x="780" d="M560 967l-170 -158h-86l114 158h142zM700 279q0 -45 -1.5 -68.5t-8.5 -59.5t-24 -63.5t-46 -49.5q-82 -64 -230 -64t-230 64q-29 22 -46 49.5t-24 63.5t-8.5 59.5t-1.5 68.5v446h150v-470q0 -35 1.5 -53.5t11 -45t29.5 -44.5q43 -39 118 -39t118 39q20 18 29.5 44.5 t11 45t1.5 53.5v470h150v-446z" />
<glyph unicode="&#xdb;" horiz-adv-x="780" d="M601 809h-114l-97 74l-97 -74h-114l140 129h142zM700 279q0 -45 -1.5 -68.5t-8.5 -59.5t-24 -63.5t-46 -49.5q-82 -64 -230 -64t-230 64q-29 22 -46 49.5t-24 63.5t-8.5 59.5t-1.5 68.5v446h150v-470q0 -35 1.5 -53.5t11 -45t29.5 -44.5q43 -39 118 -39t118 39 q20 18 29.5 44.5t11 45t1.5 53.5v470h150v-446z" />
<glyph unicode="&#xdc;" horiz-adv-x="780" d="M588 809h-143v111h143v-111zM335 809h-143v111h143v-111zM700 279q0 -45 -1.5 -68.5t-8.5 -59.5t-24 -63.5t-46 -49.5q-82 -64 -230 -64t-230 64q-29 22 -46 49.5t-24 63.5t-8.5 59.5t-1.5 68.5v446h150v-470q0 -35 1.5 -53.5t11 -45t29.5 -44.5q43 -39 118 -39t118 39 q20 18 29.5 44.5t11 45t1.5 53.5v470h150v-446z" />
<glyph unicode="&#xdd;" horiz-adv-x="717" d="M529 967l-170 -158h-86l114 158h142zM440 0h-150v290l-280 435h150l216 -336l207 336h125l-268 -435v-290z" />
<glyph unicode="&#xde;" horiz-adv-x="699" d="M230 0h-150v725h150v-130h69q71 0 109.5 -2t92 -14.5t88.5 -38.5q79 -58 79 -157q0 -108 -83 -174q-37 -29 -90 -43.5t-90 -16.5t-106 -2h-69v-147zM230 496v-250h144q76 0 110 41.5t34 92.5q0 49 -34 82.5t-110 33.5h-144z" />
<glyph unicode="&#xdf;" horiz-adv-x="687" d="M268 364q0 37 21 73t47 60.5t47 56.5t21 62q0 34 -23.5 56t-61.5 22q-45 0 -73 -27q-14 -12 -20.5 -30.5t-7.5 -32t-1 -38.5v-566h-142v543q0 49 2 75t17 61.5t44 58.5q66 50 173 50q100 0 167.5 -46t67.5 -124q0 -76 -76 -156q-60 -60 -60 -69q0 -12 12.5 -24.5 t23.5 -18.5t32 -16l55 -26q55 -25 84 -57.5t29 -86.5q0 -81 -64.5 -131.5t-169.5 -50.5q-121 0 -166 23v114q83 -43 184 -43q34 0 54 15.5t20 35.5q0 16 -15.5 31t-30.5 23t-40 20l-55 25q-43 20 -69 58t-26 80z" />
<glyph unicode="&#xe0;" horiz-adv-x="580" d="M293 548q46 0 82 -7t59 -16.5t39 -28.5t24.5 -33.5t12.5 -41.5t4.5 -43t0.5 -46v-332h-143v53q-82 -71 -168 -71q-71 0 -116.5 43.5t-45.5 111.5q0 86 79 133q46 27 107.5 37t143.5 12v34q0 25 -2 38.5t-10.5 30.5t-29 24.5t-53.5 7.5q-77 0 -182 -49v104q81 39 198 39z M372 120v123q-100 -1 -145 -28q-43 -29 -43 -72q0 -31 19.5 -49t56.5 -18q54 0 112 44zM372 614h-86l-170 158h142z" />
<glyph unicode="&#xe1;" horiz-adv-x="580" d="M457 772l-170 -158h-86l114 158h142zM293 548q46 0 82 -7t59 -16.5t39 -28.5t24.5 -33.5t12.5 -41.5t4.5 -43t0.5 -46v-332h-143v53q-82 -71 -168 -71q-71 0 -116.5 43.5t-45.5 111.5q0 86 79 133q46 27 107.5 37t143.5 12v34q0 25 -2 38.5t-10.5 30.5t-29 24.5 t-53.5 7.5q-77 0 -182 -49v104q81 39 198 39zM372 120v123q-100 -1 -145 -28q-43 -29 -43 -72q0 -31 19.5 -49t56.5 -18q54 0 112 44z" />
<glyph unicode="&#xe2;" horiz-adv-x="580" d="M498 614h-114l-97 74l-97 -74h-114l140 129h142zM293 548q46 0 82 -7t59 -16.5t39 -28.5t24.5 -33.5t12.5 -41.5t4.5 -43t0.5 -46v-332h-143v53q-82 -71 -168 -71q-71 0 -116.5 43.5t-45.5 111.5q0 86 79 133q46 27 107.5 37t143.5 12v34q0 25 -2 38.5t-10.5 30.5 t-29 24.5t-53.5 7.5q-77 0 -182 -49v104q81 39 198 39zM372 120v123q-100 -1 -145 -28q-43 -29 -43 -72q0 -31 19.5 -49t56.5 -18q54 0 112 44z" />
<glyph unicode="&#xe3;" horiz-adv-x="580" d="M189 832q32 0 60.5 -13.5t48.5 -32.5t37 -38t33.5 -32.5t31.5 -13.5q13 0 21 9.5t11 29.5t3.5 34t0.5 39h142q0 -85 -53.5 -145.5t-127.5 -60.5q-27 0 -52 9.5t-42 24t-34 31.5t-29.5 31.5t-26.5 24t-27 9.5t-21 -9.5t-11 -29.5t-3.5 -34t-0.5 -39h-142q0 85 53.5 145.5 t127.5 60.5zM293 548q46 0 82 -7t59 -16.5t39 -28.5t24.5 -33.5t12.5 -41.5t4.5 -43t0.5 -46v-332h-143v53q-82 -71 -168 -71q-71 0 -116.5 43.5t-45.5 111.5q0 86 79 133q46 27 107.5 37t143.5 12v34q0 25 -2 38.5t-10.5 30.5t-29 24.5t-53.5 7.5q-77 0 -182 -49v104 q81 39 198 39zM372 120v123q-100 -1 -145 -28q-43 -29 -43 -72q0 -31 19.5 -49t56.5 -18q54 0 112 44z" />
<glyph unicode="&#xe4;" horiz-adv-x="580" d="M485 614h-143v111h143v-111zM232 614h-143v111h143v-111zM293 548q46 0 82 -7t59 -16.5t39 -28.5t24.5 -33.5t12.5 -41.5t4.5 -43t0.5 -46v-332h-143v53q-82 -71 -168 -71q-71 0 -116.5 43.5t-45.5 111.5q0 86 79 133q46 27 107.5 37t143.5 12v34q0 25 -2 38.5 t-10.5 30.5t-29 24.5t-53.5 7.5q-77 0 -182 -49v104q81 39 198 39zM372 120v123q-100 -1 -145 -28q-43 -29 -43 -72q0 -31 19.5 -49t56.5 -18q54 0 112 44z" />
<glyph unicode="&#xe5;" horiz-adv-x="580" d="M293 548q46 0 82 -7t59 -16.5t39 -28.5t24.5 -33.5t12.5 -41.5t4.5 -43t0.5 -46v-332h-143v53q-82 -71 -168 -71q-71 0 -116.5 43.5t-45.5 111.5q0 86 79 133q46 27 107.5 37t143.5 12v34q0 25 -2 38.5t-10.5 30.5t-29 24.5t-53.5 7.5q-77 0 -182 -49v104q81 39 198 39z M372 120v123q-100 -1 -145 -28q-43 -29 -43 -72q0 -31 19.5 -49t56.5 -18q54 0 112 44zM372 764q0 35 -25 60t-60 25t-60 -25t-25 -60t25 -60t60 -25t60 25t25 60zM458 764q0 -66 -50.5 -111t-120.5 -45t-120.5 45t-50.5 111t50.5 111t120.5 45t120.5 -45t50.5 -111z" />
<glyph unicode="&#xe8;" horiz-adv-x="597" d="M198 333h212q-13 131 -100 131q-42 0 -72 -33t-40 -98zM336 -18q-63 0 -116 17t-95 51t-66 91.5t-24 131.5q0 62 17 111t44 79t63.5 50t72 27.5t72.5 7.5t71.5 -8t67.5 -27t57 -47.5t39 -73.5t15 -101q0 -20 -2 -42h-360q1 -51 12 -86t31.5 -53.5t46.5 -26t63 -7.5 q86 0 191 37v-94q-105 -37 -200 -37zM402 614h-86l-170 158h142z" />
<glyph unicode="&#xe9;" horiz-adv-x="597" d="M487 772l-170 -158h-86l114 158h142zM198 333h212q-13 131 -100 131q-42 0 -72 -33t-40 -98zM336 -18q-63 0 -116 17t-95 51t-66 91.5t-24 131.5q0 62 17 111t44 79t63.5 50t72 27.5t72.5 7.5t71.5 -8t67.5 -27t57 -47.5t39 -73.5t15 -101q0 -20 -2 -42h-360 q1 -51 12 -86t31.5 -53.5t46.5 -26t63 -7.5q86 0 191 37v-94q-105 -37 -200 -37z" />
<glyph unicode="&#xea;" horiz-adv-x="597" d="M527 614h-114l-97 74l-97 -74h-114l140 129h142zM198 333h212q-13 131 -100 131q-42 0 -72 -33t-40 -98zM336 -18q-63 0 -116 17t-95 51t-66 91.5t-24 131.5q0 62 17 111t44 79t63.5 50t72 27.5t72.5 7.5t71.5 -8t67.5 -27t57 -47.5t39 -73.5t15 -101q0 -20 -2 -42h-360 q1 -51 12 -86t31.5 -53.5t46.5 -26t63 -7.5q86 0 191 37v-94q-105 -37 -200 -37z" />
<glyph unicode="&#xeb;" horiz-adv-x="597" d="M514 614h-143v111h143v-111zM261 614h-143v111h143v-111zM198 333h212q-13 131 -100 131q-42 0 -72 -33t-40 -98zM336 -18q-63 0 -116 17t-95 51t-66 91.5t-24 131.5q0 62 17 111t44 79t63.5 50t72 27.5t72.5 7.5t71.5 -8t67.5 -27t57 -47.5t39 -73.5t15 -101 q0 -20 -2 -42h-360q1 -51 12 -86t31.5 -53.5t46.5 -26t63 -7.5q86 0 191 37v-94q-105 -37 -200 -37z" />
<glyph unicode="&#xec;" horiz-adv-x="292" d="M232 614h-86l-170 158h142zM217 0h-142v530h142v-530z" />
<glyph unicode="&#xed;" horiz-adv-x="292" d="M317 772l-170 -158h-86l114 158h142zM217 0h-142v530h142v-530z" />
<glyph unicode="&#xee;" horiz-adv-x="292" d="M357 614h-114l-97 74l-97 -74h-114l140 129h142zM217 0h-142v530h142v-530z" />
<glyph unicode="&#xef;" horiz-adv-x="292" d="M344 614h-143v111h143v-111zM91 614h-143v111h143v-111zM217 0h-142v530h142v-530z" />
<glyph unicode="&#xf0;" horiz-adv-x="625" d="M584 265q0 -65 -16 -115.5t-42.5 -81.5t-62.5 -51t-72.5 -27.5t-77.5 -7.5t-77.5 7.5t-72.5 27.5t-62.5 50.5t-42.5 80t-16 113.5t16.5 114.5t42 80.5t61 49.5t69 26.5t69.5 7q33 0 59 -6q-28 40 -64 74l-135 -49l-21 57l100 36q-52 35 -112 55l93 53q72 -23 135 -66 l137 50l21 -57l-102 -37q82 -73 127.5 -173t45.5 -211zM441 265q0 110 -30.5 154t-88.5 44q-65 0 -101.5 -49t-36.5 -145q0 -97 35 -145t94 -48q58 0 93.5 47.5t35.5 141.5h-1z" />
<glyph unicode="&#xf1;" horiz-adv-x="623" d="M208 832q32 0 60.5 -13.5t48.5 -32.5t37 -38t33.5 -32.5t31.5 -13.5q13 0 21 9.5t11 29.5t3.5 34t0.5 39h142q0 -85 -53.5 -145.5t-127.5 -60.5q-27 0 -52 9.5t-42 24t-34 31.5t-29.5 31.5t-26.5 24t-27 9.5t-21 -9.5t-11 -29.5t-3.5 -34t-0.5 -39h-142q0 85 53.5 145.5 t127.5 60.5zM407 351q0 19 -0.5 30t-4.5 27t-11 24.5t-21 15t-34 6.5q-67 0 -119 -57v-397h-142v530h142v-60q76 78 175 78q29 0 52.5 -5.5t39.5 -17.5t28 -23.5t18.5 -32.5t11 -33.5t6 -38t1.5 -35.5v-34v-328h-142v351z" />
<glyph unicode="&#xf2;" horiz-adv-x="625" d="M434 265q0 36 -2 59t-12 51.5t-29 47.5q-31 31 -78 31t-78 -31q-27 -27 -35 -64.5t-8 -93.5q0 -36 2 -59t12 -51.5t29 -47.5q31 -31 78 -31t78 31q27 27 35 64.5t8 93.5zM313 548q133 0 205.5 -81.5t72.5 -201.5t-72.5 -201.5t-205.5 -81.5t-205.5 81.5t-72.5 201.5 t72.5 201.5t205.5 81.5zM398 614h-86l-170 158h142z" />
<glyph unicode="&#xf3;" horiz-adv-x="625" d="M483 772l-170 -158h-86l114 158h142zM434 265q0 36 -2 59t-12 51.5t-29 47.5q-31 31 -78 31t-78 -31q-27 -27 -35 -64.5t-8 -93.5q0 -36 2 -59t12 -51.5t29 -47.5q31 -31 78 -31t78 31q27 27 35 64.5t8 93.5zM313 548q133 0 205.5 -81.5t72.5 -201.5t-72.5 -201.5 t-205.5 -81.5t-205.5 81.5t-72.5 201.5t72.5 201.5t205.5 81.5z" />
<glyph unicode="&#xf4;" horiz-adv-x="625" d="M524 614h-114l-97 74l-97 -74h-114l140 129h142zM434 265q0 36 -2 59t-12 51.5t-29 47.5q-31 31 -78 31t-78 -31q-27 -27 -35 -64.5t-8 -93.5q0 -36 2 -59t12 -51.5t29 -47.5q31 -31 78 -31t78 31q27 27 35 64.5t8 93.5zM313 548q133 0 205.5 -81.5t72.5 -201.5 t-72.5 -201.5t-205.5 -81.5t-205.5 81.5t-72.5 201.5t72.5 201.5t205.5 81.5z" />
<glyph unicode="&#xf5;" horiz-adv-x="625" d="M209 832q32 0 60.5 -13.5t48.5 -32.5t37 -38t33.5 -32.5t31.5 -13.5q13 0 21 9.5t11 29.5t3.5 34t0.5 39h142q0 -85 -53.5 -145.5t-127.5 -60.5q-27 0 -52 9.5t-42 24t-34 31.5t-29.5 31.5t-26.5 24t-27 9.5t-21 -9.5t-11 -29.5t-3.5 -34t-0.5 -39h-142q0 85 53.5 145.5 t127.5 60.5zM434 265q0 36 -2 59t-12 51.5t-29 47.5q-31 31 -78 31t-78 -31q-27 -27 -35 -64.5t-8 -93.5q0 -36 2 -59t12 -51.5t29 -47.5q31 -31 78 -31t78 31q27 27 35 64.5t8 93.5zM313 548q133 0 205.5 -81.5t72.5 -201.5t-72.5 -201.5t-205.5 -81.5t-205.5 81.5 t-72.5 201.5t72.5 201.5t205.5 81.5z" />
<glyph unicode="&#xf6;" horiz-adv-x="625" d="M511 614h-143v111h143v-111zM258 614h-143v111h143v-111zM434 265q0 36 -2 59t-12 51.5t-29 47.5q-31 31 -78 31t-78 -31q-27 -27 -35 -64.5t-8 -93.5q0 -36 2 -59t12 -51.5t29 -47.5q31 -31 78 -31t78 31q27 27 35 64.5t8 93.5zM313 548q133 0 205.5 -81.5t72.5 -201.5 t-72.5 -201.5t-205.5 -81.5t-205.5 81.5t-72.5 201.5t72.5 201.5t205.5 81.5z" />
<glyph unicode="&#xf9;" horiz-adv-x="623" d="M217 180q0 -24 1.5 -38t8 -31.5t22 -26t40.5 -8.5q66 0 118 57v397h142v-530h-142v60q-75 -78 -172 -78q-76 0 -118 45q-20 21 -29.5 53.5t-11 56t-1.5 67.5v326h142v-350zM397 614h-86l-170 158h142z" />
<glyph unicode="&#xfa;" horiz-adv-x="623" d="M482 772l-170 -158h-86l114 158h142zM217 180q0 -24 1.5 -38t8 -31.5t22 -26t40.5 -8.5q66 0 118 57v397h142v-530h-142v60q-75 -78 -172 -78q-76 0 -118 45q-20 21 -29.5 53.5t-11 56t-1.5 67.5v326h142v-350z" />
<glyph unicode="&#xfb;" horiz-adv-x="623" d="M523 614h-114l-97 74l-97 -74h-114l140 129h142zM217 180q0 -24 1.5 -38t8 -31.5t22 -26t40.5 -8.5q66 0 118 57v397h142v-530h-142v60q-75 -78 -172 -78q-76 0 -118 45q-20 21 -29.5 53.5t-11 56t-1.5 67.5v326h142v-350z" />
<glyph unicode="&#xfc;" horiz-adv-x="623" d="M510 614h-143v111h143v-111zM257 614h-143v111h143v-111zM217 180q0 -24 1.5 -38t8 -31.5t22 -26t40.5 -8.5q66 0 118 57v397h142v-530h-142v60q-75 -78 -172 -78q-76 0 -118 45q-20 21 -29.5 53.5t-11 56t-1.5 67.5v326h142v-350z" />
<glyph unicode="&#xfd;" horiz-adv-x="561" d="M451 772l-170 -158h-86l114 158h142zM552 530l-264 -723h-119l58 158l-217 565h142l146 -371l136 371h118z" />
<glyph unicode="&#xfe;" horiz-adv-x="601" d="M567 304q0 -134 -60 -218q-37 -51 -95 -77.5t-152 -26.5q-22 0 -43 2v-177h-142v963h142v-321q63 99 170 99q32 0 60.5 -10.5t57 -35t45.5 -75.5t17 -123zM268 76q42 0 71 16.5t44 47.5t21 66.5t6 83.5q0 90 -19 127t-60 37q-36 0 -67.5 -23.5t-46.5 -60.5v-288 q27 -6 51 -6z" />
<glyph unicode="&#xff;" horiz-adv-x="561" d="M479 614h-143v111h143v-111zM226 614h-143v111h143v-111zM552 530l-264 -723h-119l58 158l-217 565h142l146 -371l136 371h118z" />
<glyph unicode="&#x152;" horiz-adv-x="1514" d="M1487 0h-552v725h540v-99h-390v-189h311v-99h-311v-239h402v-99zM658 363q0 167 -75 235q-60 54 -155 54t-155 -54q-75 -68 -75 -235q0 -168 75 -236q60 -54 155 -54t155 54q75 68 75 236zM428 751q189 0 292.5 -111t103.5 -277q0 -81 -25.5 -150.5t-73.5 -123 t-124.5 -84.5t-172.5 -31q-189 0 -292.5 110.5t-103.5 278.5q0 108 43.5 194.5t134.5 140t218 53.5z" />
<glyph unicode="&#x153;" horiz-adv-x="1222" d="M823 333h212q-13 131 -100 131q-42 0 -72 -33t-40 -98zM961 -18q-63 0 -116 17t-95 51t-66 91.5t-24 131.5q0 62 17 111t44 79t63.5 50t72 27.5t72.5 7.5t71.5 -8t67.5 -27t57 -47.5t39 -73.5t15 -101q0 -20 -2 -42h-360q1 -51 12 -86t31.5 -53.5t46.5 -26t63 -7.5 q86 0 191 37v-94q-105 -37 -200 -37zM434 265q0 36 -2 59t-12 51.5t-29 47.5q-31 31 -78 31t-78 -31q-27 -27 -35 -64.5t-8 -93.5q0 -36 2 -59t12 -51.5t29 -47.5q31 -31 78 -31t78 31q27 27 35 64.5t8 93.5zM313 548q133 0 205.5 -81.5t72.5 -201.5t-72.5 -201.5 t-205.5 -81.5t-205.5 81.5t-72.5 201.5t72.5 201.5t205.5 81.5z" />
<glyph unicode="&#x178;" horiz-adv-x="717" d="M557 809h-143v111h143v-111zM304 809h-143v111h143v-111zM440 0h-150v290l-280 435h150l216 -336l207 336h125l-268 -435v-290z" />
<glyph unicode="&#x2c6;" horiz-adv-x="710" d="M566 614h-114l-97 74l-97 -74h-114l140 129h142z" />
<glyph unicode="&#x2dc;" horiz-adv-x="250" d="M-104 284q32 0 60.5 -13.5t48.5 -32.5t37 -38t33.5 -32.5t31.5 -13.5q13 0 21 9.5t11 29.5t3.5 34t0.5 39h142q0 -85 -53.5 -145.5t-127.5 -60.5q-27 0 -52 9.5t-42 24t-34 31.5t-29.5 31.5t-26.5 24t-27 9.5t-21 -9.5t-11 -29.5t-3.5 -34t-0.5 -39h-142q0 85 53.5 145.5 t127.5 60.5z" />
<glyph unicode="&#x2000;" horiz-adv-x="557" />
<glyph unicode="&#x2001;" horiz-adv-x="1115" />
<glyph unicode="&#x2002;" horiz-adv-x="557" />
<glyph unicode="&#x2003;" horiz-adv-x="1115" />
<glyph unicode="&#x2004;" horiz-adv-x="371" />
<glyph unicode="&#x2005;" horiz-adv-x="278" />
<glyph unicode="&#x2006;" horiz-adv-x="185" />
<glyph unicode="&#x2007;" horiz-adv-x="185" />
<glyph unicode="&#x2008;" horiz-adv-x="139" />
<glyph unicode="&#x2009;" horiz-adv-x="223" />
<glyph unicode="&#x200a;" horiz-adv-x="61" />
<glyph unicode="&#x2010;" horiz-adv-x="300" d="M260 260h-220v94h220v-94z" />
<glyph unicode="&#x2011;" horiz-adv-x="300" d="M260 260h-220v94h220v-94z" />
<glyph unicode="&#x2013;" horiz-adv-x="500" d="M40 260v94h420v-94h-420z" />
<glyph unicode="&#x2014;" horiz-adv-x="1000" d="M40 260v94h920v-94h-920z" />
<glyph unicode="&#x2018;" horiz-adv-x="262" d="M216 786l-54 -262v-95h-142v95l107 262h89z" />
<glyph unicode="&#x2019;" horiz-adv-x="262" d="M242 691l-107 -262h-89l54 262v95h142v-95z" />
<glyph unicode="&#x201c;" horiz-adv-x="485" d="M236 786l-54 -262v-95h-142v95l107 262h89zM457 786l-53 -262v-95h-142v95l106 262h89z" />
<glyph unicode="&#x201d;" horiz-adv-x="485" d="M444 691l-107 -262h-89l54 262v95h142v-95zM222 691l-106 -262h-89l53 262v95h142v-95z" />
<glyph unicode="&#x2026;" horiz-adv-x="906" d="M826 0h-142v142h142v-142zM524 0h-142v142h142v-142zM222 0h-142v142h142v-142z" />
<glyph unicode="&#x202f;" horiz-adv-x="223" />
<glyph unicode="&#x2039;" horiz-adv-x="547" d="M508 77l-468 212v36l468 212v-108l-259 -122l259 -122v-108z" />
<glyph unicode="&#x203a;" horiz-adv-x="547" d="M508 325v-36l-468 -212v108l259 122l-259 122v108z" />
<glyph unicode="&#x205f;" horiz-adv-x="278" />
<glyph unicode="&#x2122;" horiz-adv-x="1575" d="M1495 0h-150v576l-159 -525h-150l-172 525v-576h-125v725h226l156 -476l145 476h229v-725zM650 626h-245v-626h-150v626h-245v99h640v-99z" />
</font>
</defs>
</svg>
